<?xml version='1.0' encoding='UTF-8'?>
<svg width="147mm" height="147mm" version="1.1" viewBox="0 0 147 147" xmlns="http://www.w3.org/2000/svg"><path d="M12,12H15V15H12zM15,12H18V15H15zM18,12H21V15H18zM21,12H24V15H21zM24,12H27V15H24zM27,12H30V15H27zM30,12H33V15H30zM42,12H45V15H42zM51,12H54V15H51zM57,12H60V15H57zM69,12H72V15H69zM72,12H75V15H72zM75,12H78V15H75zM78,12H81V15H78zM84,12H87V15H84zM87,12H90V15H87zM102,12H105V15H102zM105,12H108V15H105zM108,12H111V15H108zM114,12H117V15H114zM117,12H120V15H117zM120,12H123V15H120zM123,12H126V15H123zM126,12H129V15H126zM129,12H132V15H129zM132,12H135V15H132zM12,15H15V18H12zM30,15H33V18H30zM39,15H42V18H39zM42,15H45V18H42zM48,15H51V18H48zM63,15H66V18H63zM72,15H75V18H72zM78,15H81V18H78zM84,15H87V18H84zM87,15H90V18H87zM96,15H99V18H96zM99,15H102V18H99zM108,15H111V18H108zM114,15H117V18H114zM132,15H135V18H132zM12,18H15V21H12zM18,18H21V21H18zM21,18H24V21H21zM24,18H27V21H24zM30,18H33V21H30zM42,18H45V21H42zM51,18H54V21H51zM60,18H63V21H60zM69,18H72V21H69zM75,18H78V21H75zM96,18H99V21H96zM102,18H105V21H102zM105,18H108V21H105zM114,18H117V21H114zM120,18H123V21H120zM123,18H126V21H123zM126,18H129V21H126zM132,18H135V21H132zM12,21H15V24H12zM18,21H21V24H18zM21,21H24V24H21zM24,21H27V24H24zM30,21H33V24H30zM39,21H42V24H39zM42,21H45V24H42zM48,21H51V24H48zM54,21H57V24H54zM57,21H60V24H57zM63,21H66V24H63zM69,21H72V24H69zM78,21H81V24H78zM81,21H84V24H81zM84,21H87V24H84zM90,21H93V24H90zM102,21H105V24H102zM105,21H108V24H105zM108,21H111V24H108zM114,21H117V24H114zM120,21H123V24H120zM123,21H126V24H123zM126,21H129V24H126zM132,21H135V24H132zM12,24H15V27H12zM18,24H21V27H18zM21,24H24V27H21zM24,24H27V27H24zM30,24H33V27H30zM36,24H39V27H36zM39,24H42V27H39zM42,24H45V27H42zM45,24H48V27H45zM60,24H63V27H60zM66,24H69V27H66zM69,24H72V27H69zM75,24H78V27H75zM78,24H81V27H78zM81,24H84V27H81zM87,24H90V27H87zM90,24H93V27H90zM93,24H96V27H93zM96,24H99V27H96zM102,24H105V27H102zM105,24H108V27H105zM114,24H117V27H114zM120,24H123V27H120zM123,24H126V27H123zM126,24H129V27H126zM132,24H135V27H132zM12,27H15V30H12zM30,27H33V30H30zM39,27H42V30H39zM42,27H45V30H42zM51,27H54V30H51zM57,27H60V30H57zM60,27H63V30H60zM63,27H66V30H63zM69,27H72V30H69zM84,27H87V30H84zM87,27H90V30H87zM90,27H93V30H90zM96,27H99V30H96zM99,27H102V30H99zM105,27H108V30H105zM108,27H111V30H108zM114,27H117V30H114zM132,27H135V30H132zM12,30H15V33H12zM15,30H18V33H15zM18,30H21V33H18zM21,30H24V33H21zM24,30H27V33H24zM27,30H30V33H27zM30,30H33V33H30zM36,30H39V33H36zM42,30H45V33H42zM48,30H51V33H48zM54,30H57V33H54zM60,30H63V33H60zM66,30H69V33H66zM72,30H75V33H72zM78,30H81V33H78zM84,30H87V33H84zM90,30H93V33H90zM96,30H99V33H96zM102,30H105V33H102zM108,30H111V33H108zM114,30H117V33H114zM117,30H120V33H117zM120,30H123V33H120zM123,30H126V33H123zM126,30H129V33H126zM129,30H132V33H129zM132,30H135V33H132zM36,33H39V36H36zM39,33H42V36H39zM45,33H48V36H45zM48,33H51V36H48zM54,33H57V36H54zM57,33H60V36H57zM66,33H69V36H66zM69,33H72V36H69zM75,33H78V36H75zM93,33H96V36H93zM96,33H99V36H96zM99,33H102V36H99zM108,33H111V36H108zM18,36H21V39H18zM21,36H24V39H21zM30,36H33V39H30zM33,36H36V39H33zM36,36H39V39H36zM45,36H48V39H45zM51,36H54V39H51zM54,36H57V39H54zM57,36H60V39H57zM66,36H69V39H66zM69,36H72V39H69zM72,36H75V39H72zM84,36H87V39H84zM93,36H96V39H93zM96,36H99V39H96zM99,36H102V39H99zM102,36H105V39H102zM111,36H114V39H111zM114,36H117V39H114zM120,36H123V39H120zM12,39H15V42H12zM15,39H18V42H15zM24,39H27V42H24zM27,39H30V42H27zM36,39H39V42H36zM39,39H42V42H39zM45,39H48V42H45zM48,39H51V42H48zM51,39H54V42H51zM54,39H57V42H54zM57,39H60V42H57zM66,39H69V42H66zM72,39H75V42H72zM87,39H90V42H87zM96,39H99V42H96zM102,39H105V42H102zM105,39H108V42H105zM108,39H111V42H108zM114,39H117V42H114zM117,39H120V42H117zM120,39H123V42H120zM126,39H129V42H126zM129,39H132V42H129zM132,39H135V42H132zM12,42H15V45H12zM21,42H24V45H21zM27,42H30V45H27zM30,42H33V45H30zM36,42H39V45H36zM45,42H48V45H45zM51,42H54V45H51zM54,42H57V45H54zM57,42H60V45H57zM60,42H63V45H60zM63,42H66V45H63zM66,42H69V45H66zM72,42H75V45H72zM78,42H81V45H78zM84,42H87V45H84zM87,42H90V45H87zM96,42H99V45H96zM99,42H102V45H99zM102,42H105V45H102zM111,42H114V45H111zM126,42H129V45H126zM129,42H132V45H129zM21,45H24V48H21zM24,45H27V48H24zM36,45H39V48H36zM42,45H45V48H42zM45,45H48V48H45zM48,45H51V48H48zM54,45H57V48H54zM57,45H60V48H57zM60,45H63V48H60zM63,45H66V48H63zM66,45H69V48H66zM69,45H72V48H69zM72,45H75V48H72zM75,45H78V48H75zM87,45H90V48H87zM90,45H93V48H90zM93,45H96V48H93zM108,45H111V48H108zM111,45H114V48H111zM114,45H117V48H114zM117,45H120V48H117zM15,48H18V51H15zM21,48H24V51H21zM24,48H27V51H24zM30,48H33V51H30zM33,48H36V51H33zM39,48H42V51H39zM48,48H51V51H48zM54,48H57V51H54zM60,48H63V51H60zM63,48H66V51H63zM66,48H69V51H66zM72,48H75V51H72zM84,48H87V51H84zM87,48H90V51H87zM90,48H93V51H90zM96,48H99V51H96zM99,48H102V51H99zM105,48H108V51H105zM117,48H120V51H117zM123,48H126V51H123zM126,48H129V51H126zM129,48H132V51H129zM18,51H21V54H18zM21,51H24V54H21zM27,51H30V54H27zM33,51H36V54H33zM42,51H45V54H42zM45,51H48V54H45zM48,51H51V54H48zM51,51H54V54H51zM54,51H57V54H54zM57,51H60V54H57zM75,51H78V54H75zM78,51H81V54H78zM87,51H90V54H87zM90,51H93V54H90zM111,51H114V54H111zM114,51H117V54H114zM117,51H120V54H117zM123,51H126V54H123zM132,51H135V54H132zM15,54H18V57H15zM18,54H21V57H18zM21,54H24V57H21zM30,54H33V57H30zM36,54H39V57H36zM54,54H57V57H54zM63,54H66V57H63zM90,54H93V57H90zM99,54H102V57H99zM102,54H105V57H102zM114,54H117V57H114zM123,54H126V57H123zM126,54H129V57H126zM132,54H135V57H132zM12,57H15V60H12zM15,57H18V60H15zM18,57H21V60H18zM21,57H24V60H21zM24,57H27V60H24zM33,57H36V60H33zM42,57H45V60H42zM45,57H48V60H45zM48,57H51V60H48zM54,57H57V60H54zM66,57H69V60H66zM72,57H75V60H72zM78,57H81V60H78zM93,57H96V60H93zM105,57H108V60H105zM108,57H111V60H108zM114,57H117V60H114zM123,57H126V60H123zM132,57H135V60H132zM18,60H21V63H18zM21,60H24V63H21zM27,60H30V63H27zM30,60H33V63H30zM36,60H39V63H36zM42,60H45V63H42zM45,60H48V63H45zM48,60H51V63H48zM54,60H57V63H54zM60,60H63V63H60zM69,60H72V63H69zM72,60H75V63H72zM78,60H81V63H78zM81,60H84V63H81zM84,60H87V63H84zM90,60H93V63H90zM96,60H99V63H96zM102,60H105V63H102zM105,60H108V63H105zM108,60H111V63H108zM120,60H123V63H120zM129,60H132V63H129zM132,60H135V63H132zM12,63H15V66H12zM15,63H18V66H15zM21,63H24V66H21zM24,63H27V66H24zM27,63H30V66H27zM42,63H45V66H42zM48,63H51V66H48zM63,63H66V66H63zM66,63H69V66H66zM69,63H72V66H69zM78,63H81V66H78zM90,63H93V66H90zM93,63H96V66H93zM99,63H102V66H99zM108,63H111V66H108zM111,63H114V66H111zM117,63H120V66H117zM126,63H129V66H126zM24,66H27V69H24zM30,66H33V69H30zM33,66H36V69H33zM36,66H39V69H36zM39,66H42V69H39zM42,66H45V69H42zM45,66H48V69H45zM54,66H57V69H54zM57,66H60V69H57zM60,66H63V69H60zM63,66H66V69H63zM72,66H75V69H72zM87,66H90V69H87zM90,66H93V69H90zM93,66H96V69H93zM96,66H99V69H96zM99,66H102V69H99zM108,66H111V69H108zM120,66H123V69H120zM123,66H126V69H123zM126,66H129V69H126zM15,69H18V72H15zM21,69H24V72H21zM24,69H27V72H24zM36,69H39V72H36zM48,69H51V72H48zM54,69H57V72H54zM57,69H60V72H57zM60,69H63V72H60zM66,69H69V72H66zM75,69H78V72H75zM78,69H81V72H78zM93,69H96V72H93zM96,69H99V72H96zM105,69H108V72H105zM108,69H111V72H108zM117,69H120V72H117zM123,69H126V72H123zM126,69H129V72H126zM129,69H132V72H129zM12,72H15V75H12zM15,72H18V75H15zM18,72H21V75H18zM21,72H24V75H21zM30,72H33V75H30zM36,72H39V75H36zM42,72H45V75H42zM45,72H48V75H45zM51,72H54V75H51zM57,72H60V75H57zM63,72H66V75H63zM72,72H75V75H72zM75,72H78V75H75zM81,72H84V75H81zM84,72H87V75H84zM96,72H99V75H96zM102,72H105V75H102zM105,72H108V75H105zM114,72H117V75H114zM120,72H123V75H120zM123,72H126V75H123zM126,72H129V75H126zM132,72H135V75H132zM15,75H18V78H15zM21,75H24V78H21zM24,75H27V78H24zM33,75H36V78H33zM42,75H45V78H42zM45,75H48V78H45zM48,75H51V78H48zM51,75H54V78H51zM54,75H57V78H54zM60,75H63V78H60zM63,75H66V78H63zM69,75H72V78H69zM99,75H102V78H99zM102,75H105V78H102zM105,75H108V78H105zM108,75H111V78H108zM111,75H114V78H111zM114,75H117V78H114zM117,75H120V78H117zM120,75H123V78H120zM123,75H126V78H123zM129,75H132V78H129zM132,75H135V78H132zM12,78H15V81H12zM30,78H33V81H30zM36,78H39V81H36zM42,78H45V81H42zM45,78H48V81H45zM54,78H57V81H54zM60,78H63V81H60zM63,78H66V81H63zM78,78H81V81H78zM81,78H84V81H81zM84,78H87V81H84zM87,78H90V81H87zM90,78H93V81H90zM102,78H105V81H102zM123,78H126V81H123zM126,78H129V81H126zM129,78H132V81H129zM12,81H15V84H12zM15,81H18V84H15zM18,81H21V84H18zM27,81H30V84H27zM33,81H36V84H33zM36,81H39V84H36zM39,81H42V84H39zM45,81H48V84H45zM57,81H60V84H57zM69,81H72V84H69zM72,81H75V84H72zM78,81H81V84H78zM81,81H84V84H81zM90,81H93V84H90zM93,81H96V84H93zM96,81H99V84H96zM102,81H105V84H102zM108,81H111V84H108zM120,81H123V84H120zM129,81H132V84H129zM12,84H15V87H12zM15,84H18V87H15zM18,84H21V87H18zM21,84H24V87H21zM30,84H33V87H30zM54,84H57V87H54zM57,84H60V87H57zM60,84H63V87H60zM63,84H66V87H63zM72,84H75V87H72zM75,84H78V87H75zM78,84H81V87H78zM87,84H90V87H87zM90,84H93V87H90zM93,84H96V87H93zM99,84H102V87H99zM117,84H120V87H117zM123,84H126V87H123zM126,84H129V87H126zM129,84H132V87H129zM12,87H15V90H12zM33,87H36V90H33zM45,87H48V90H45zM48,87H51V90H48zM51,87H54V90H51zM54,87H57V90H54zM60,87H63V90H60zM63,87H66V90H63zM69,87H72V90H69zM72,87H75V90H72zM78,87H81V90H78zM87,87H90V90H87zM90,87H93V90H90zM93,87H96V90H93zM96,87H99V90H96zM105,87H108V90H105zM108,87H111V90H108zM114,87H117V90H114zM123,87H126V90H123zM126,87H129V90H126zM129,87H132V90H129zM132,87H135V90H132zM15,90H18V93H15zM18,90H21V93H18zM24,90H27V93H24zM30,90H33V93H30zM33,90H36V93H33zM36,90H39V93H36zM39,90H42V93H39zM54,90H57V93H54zM69,90H72V93H69zM72,90H75V93H72zM81,90H84V93H81zM84,90H87V93H84zM87,90H90V93H87zM96,90H99V93H96zM105,90H108V93H105zM108,90H111V93H108zM111,90H114V93H111zM114,90H117V93H114zM117,90H120V93H117zM120,90H123V93H120zM123,90H126V93H123zM129,90H132V93H129zM132,90H135V93H132zM18,93H21V96H18zM21,93H24V96H21zM24,93H27V96H24zM42,93H45V96H42zM45,93H48V96H45zM51,93H54V96H51zM54,93H57V96H54zM60,93H63V96H60zM69,93H72V96H69zM75,93H78V96H75zM78,93H81V96H78zM81,93H84V96H81zM102,93H105V96H102zM105,93H108V96H105zM108,93H111V96H108zM114,93H117V96H114zM117,93H120V96H117zM123,93H126V96H123zM132,93H135V96H132zM12,96H15V99H12zM21,96H24V99H21zM30,96H33V99H30zM33,96H36V99H33zM42,96H45V99H42zM45,96H48V99H45zM60,96H63V99H60zM69,96H72V99H69zM78,96H81V99H78zM81,96H84V99H81zM84,96H87V99H84zM90,96H93V99H90zM102,96H105V99H102zM105,96H108V99H105zM108,96H111V99H108zM120,96H123V99H120zM123,96H126V99H123zM129,96H132V99H129zM132,96H135V99H132zM15,99H18V102H15zM18,99H21V102H18zM24,99H27V102H24zM42,99H45V102H42zM45,99H48V102H45zM51,99H54V102H51zM54,99H57V102H54zM57,99H60V102H57zM63,99H66V102H63zM66,99H69V102H66zM72,99H75V102H72zM75,99H78V102H75zM90,99H93V102H90zM99,99H102V102H99zM102,99H105V102H102zM105,99H108V102H105zM123,99H126V102H123zM12,102H15V105H12zM21,102H24V105H21zM24,102H27V105H24zM30,102H33V105H30zM33,102H36V105H33zM36,102H39V105H36zM42,102H45V105H42zM54,102H57V105H54zM57,102H60V105H57zM69,102H72V105H69zM72,102H75V105H72zM78,102H81V105H78zM81,102H84V105H81zM108,102H111V105H108zM111,102H114V105H111zM114,102H117V105H114zM117,102H120V105H117zM120,102H123V105H120zM123,102H126V105H123zM126,102H129V105H126zM18,105H21V108H18zM27,105H30V108H27zM42,105H45V108H42zM51,105H54V108H51zM54,105H57V108H54zM63,105H66V108H63zM66,105H69V108H66zM69,105H72V108H69zM81,105H84V108H81zM84,105H87V108H84zM90,105H93V108H90zM93,105H96V108H93zM96,105H99V108H96zM99,105H102V108H99zM105,105H108V108H105zM114,105H117V108H114zM123,105H126V108H123zM126,105H129V108H126zM129,105H132V108H129zM15,108H18V111H15zM18,108H21V111H18zM24,108H27V111H24zM27,108H30V111H27zM30,108H33V111H30zM36,108H39V111H36zM45,108H48V111H45zM48,108H51V111H48zM51,108H54V111H51zM60,108H63V111H60zM75,108H78V111H75zM78,108H81V111H78zM81,108H84V111H81zM84,108H87V111H84zM87,108H90V111H87zM90,108H93V111H90zM93,108H96V111H93zM96,108H99V111H96zM99,108H102V111H99zM102,108H105V111H102zM108,108H111V111H108zM111,108H114V111H111zM114,108H117V111H114zM117,108H120V111H117zM120,108H123V111H120zM123,108H126V111H123zM126,108H129V111H126zM36,111H39V114H36zM39,111H42V114H39zM45,111H48V114H45zM48,111H51V114H48zM57,111H60V114H57zM63,111H66V114H63zM72,111H75V114H72zM81,111H84V114H81zM84,111H87V114H84zM87,111H90V114H87zM96,111H99V114H96zM102,111H105V114H102zM105,111H108V114H105zM108,111H111V114H108zM120,111H123V114H120zM123,111H126V114H123zM126,111H129V114H126zM129,111H132V114H129zM132,111H135V114H132zM12,114H15V117H12zM15,114H18V117H15zM18,114H21V117H18zM21,114H24V117H21zM24,114H27V117H24zM27,114H30V117H27zM30,114H33V117H30zM36,114H39V117H36zM39,114H42V117H39zM42,114H45V117H42zM45,114H48V117H45zM48,114H51V117H48zM54,114H57V117H54zM60,114H63V117H60zM69,114H72V117H69zM78,114H81V117H78zM87,114H90V117H87zM90,114H93V117H90zM96,114H99V117H96zM99,114H102V117H99zM105,114H108V117H105zM108,114H111V117H108zM114,114H117V117H114zM120,114H123V117H120zM129,114H132V117H129zM12,117H15V120H12zM30,117H33V120H30zM48,117H51V120H48zM54,117H57V120H54zM60,117H63V120H60zM63,117H66V120H63zM66,117H69V120H66zM75,117H78V120H75zM78,117H81V120H78zM81,117H84V120H81zM87,117H90V120H87zM90,117H93V120H90zM93,117H96V120H93zM102,117H105V120H102zM108,117H111V120H108zM120,117H123V120H120zM129,117H132V120H129zM132,117H135V120H132zM12,120H15V123H12zM18,120H21V123H18zM21,120H24V123H21zM24,120H27V123H24zM30,120H33V123H30zM39,120H42V123H39zM42,120H45V123H42zM45,120H48V123H45zM54,120H57V123H54zM60,120H63V123H60zM63,120H66V123H63zM66,120H69V123H66zM75,120H78V123H75zM81,120H84V123H81zM84,120H87V123H84zM90,120H93V123H90zM102,120H105V123H102zM108,120H111V123H108zM111,120H114V123H111zM114,120H117V123H114zM117,120H120V123H117zM120,120H123V123H120zM126,120H129V123H126zM132,120H135V123H132zM12,123H15V126H12zM18,123H21V126H18zM21,123H24V126H21zM24,123H27V126H24zM30,123H33V126H30zM36,123H39V126H36zM39,123H42V126H39zM48,123H51V126H48zM60,123H63V126H60zM63,123H66V126H63zM69,123H72V126H69zM72,123H75V126H72zM81,123H84V126H81zM93,123H96V126H93zM96,123H99V126H96zM99,123H102V126H99zM102,123H105V126H102zM105,123H108V126H105zM108,123H111V126H108zM120,123H123V126H120zM123,123H126V126H123zM126,123H129V126H126zM129,123H132V126H129zM132,123H135V126H132zM12,126H15V129H12zM18,126H21V129H18zM21,126H24V129H21zM24,126H27V129H24zM30,126H33V129H30zM36,126H39V129H36zM39,126H42V129H39zM42,126H45V129H42zM48,126H51V129H48zM54,126H57V129H54zM57,126H60V129H57zM63,126H66V129H63zM72,126H75V129H72zM75,126H78V129H75zM84,126H87V129H84zM102,126H105V129H102zM105,126H108V129H105zM108,126H111V129H108zM117,126H120V129H117zM123,126H126V129H123zM126,126H129V129H126zM132,126H135V129H132zM12,129H15V132H12zM30,129H33V132H30zM48,129H51V132H48zM57,129H60V132H57zM72,129H75V132H72zM75,129H78V132H75zM78,129H81V132H78zM90,129H93V132H90zM93,129H96V132H93zM96,129H99V132H96zM108,129H111V132H108zM114,129H117V132H114zM120,129H123V132H120zM123,129H126V132H123zM129,129H132V132H129zM12,132H15V135H12zM15,132H18V135H15zM18,132H21V135H18zM21,132H24V135H21zM24,132H27V135H24zM27,132H30V135H27zM30,132H33V135H30zM39,132H42V135H39zM42,132H45V135H42zM51,132H54V135H51zM57,132H60V135H57zM63,132H66V135H63zM69,132H72V135H69zM75,132H78V135H75zM78,132H81V135H78zM81,132H84V135H81zM90,132H93V135H90zM96,132H99V135H96zM102,132H105V135H102zM105,132H108V135H105zM108,132H111V135H108zM114,132H117V135H114zM129,132H132V135H129z" id="qr-path" fill="#000000" fill-opacity="1" fill-rule="nonzero" stroke="none" /></svg>